<svg xmlns="http://www.w3.org/2000/svg" version="1.1" xmlns:xlink="http://www.w3.org/1999/xlink" xmlns:svgjs="http://svgjs.dev/svgjs" width="1440" height="560" preserveAspectRatio="none" viewBox="0 0 1440 560"><g mask="url(&quot;#SvgjsMask1325&quot;)" fill="none"><rect width="1440" height="560" x="0" y="0" fill="rgba(13, 0, 0, 1)"></rect><path d="M128.65 64.03L193.61 101.53L193.61 176.53L128.65 214.03L63.7 176.53L63.7 101.53zM128.65 289.03L193.61 326.53L193.61 401.53L128.65 439.03L63.7 401.53L63.7 326.53zM258.56 289.03L323.51 326.53L323.51 401.53L258.56 439.03L193.61 401.53L193.61 326.53zM388.47 64.03L453.42 101.53L453.42 176.53L388.47 214.03L323.51 176.53L323.51 101.53zM388.47 514.03L453.42 551.53L453.42 626.53L388.47 664.03L323.51 626.53L323.51 551.53zM648.28 289.03L713.24 326.53L713.24 401.53L648.28 439.03L583.33 401.53L583.33 326.53zM583.33 401.53L648.28 439.03L648.28 514.03L583.33 551.53L518.38 514.03L518.38 439.03zM843.14 -48.47L908.1 -10.97L908.1 64.03L843.14 101.53L778.19 64.03L778.19 -10.97zM843.14 176.53L908.1 214.03L908.1 289.03L843.14 326.53L778.19 289.03L778.19 214.03zM1038.01 289.03L1102.96 326.53L1102.96 401.53L1038.01 439.03L973.05 401.53L973.05 326.53zM1038.01 514.03L1102.96 551.53L1102.96 626.53L1038.01 664.03L973.05 626.53L973.05 551.53zM1167.91 514.03L1232.87 551.53L1232.87 626.53L1167.91 664.03L1102.96 626.53L1102.96 551.53zM1297.82 64.03L1362.77 101.53L1362.77 176.53L1297.82 214.03L1232.87 176.53L1232.87 101.53zM1362.78 176.53L1427.73 214.03L1427.73 289.03L1362.78 326.53L1297.82 289.03L1297.82 214.03zM1427.73 514.03L1492.68 551.53L1492.68 626.53L1427.73 664.03L1362.78 626.53L1362.78 551.53z" stroke="rgba(0, 1, 2, 1)" stroke-width="2"></path><path d="M121.15 64.03 a7.5 7.5 0 1 0 15 0 a7.5 7.5 0 1 0 -15 0zM186.11 101.53 a7.5 7.5 0 1 0 15 0 a7.5 7.5 0 1 0 -15 0zM186.11 176.53 a7.5 7.5 0 1 0 15 0 a7.5 7.5 0 1 0 -15 0zM121.15 214.03 a7.5 7.5 0 1 0 15 0 a7.5 7.5 0 1 0 -15 0zM56.2 176.53 a7.5 7.5 0 1 0 15 0 a7.5 7.5 0 1 0 -15 0zM56.2 101.53 a7.5 7.5 0 1 0 15 0 a7.5 7.5 0 1 0 -15 0zM121.15 289.03 a7.5 7.5 0 1 0 15 0 a7.5 7.5 0 1 0 -15 0zM186.11 326.53 a7.5 7.5 0 1 0 15 0 a7.5 7.5 0 1 0 -15 0zM186.11 401.53 a7.5 7.5 0 1 0 15 0 a7.5 7.5 0 1 0 -15 0zM121.15 439.03 a7.5 7.5 0 1 0 15 0 a7.5 7.5 0 1 0 -15 0zM56.2 401.53 a7.5 7.5 0 1 0 15 0 a7.5 7.5 0 1 0 -15 0zM56.2 326.53 a7.5 7.5 0 1 0 15 0 a7.5 7.5 0 1 0 -15 0zM251.06 289.03 a7.5 7.5 0 1 0 15 0 a7.5 7.5 0 1 0 -15 0zM316.01 326.53 a7.5 7.5 0 1 0 15 0 a7.5 7.5 0 1 0 -15 0zM316.01 401.53 a7.5 7.5 0 1 0 15 0 a7.5 7.5 0 1 0 -15 0zM251.06 439.03 a7.5 7.5 0 1 0 15 0 a7.5 7.5 0 1 0 -15 0zM380.97 64.03 a7.5 7.5 0 1 0 15 0 a7.5 7.5 0 1 0 -15 0zM445.92 101.53 a7.5 7.5 0 1 0 15 0 a7.5 7.5 0 1 0 -15 0zM445.92 176.53 a7.5 7.5 0 1 0 15 0 a7.5 7.5 0 1 0 -15 0zM380.97 214.03 a7.5 7.5 0 1 0 15 0 a7.5 7.5 0 1 0 -15 0zM316.01 176.53 a7.5 7.5 0 1 0 15 0 a7.5 7.5 0 1 0 -15 0zM316.01 101.53 a7.5 7.5 0 1 0 15 0 a7.5 7.5 0 1 0 -15 0zM380.97 514.03 a7.5 7.5 0 1 0 15 0 a7.5 7.5 0 1 0 -15 0zM445.92 551.53 a7.5 7.5 0 1 0 15 0 a7.5 7.5 0 1 0 -15 0zM445.92 626.53 a7.5 7.5 0 1 0 15 0 a7.5 7.5 0 1 0 -15 0zM380.97 664.03 a7.5 7.5 0 1 0 15 0 a7.5 7.5 0 1 0 -15 0zM316.01 626.53 a7.5 7.5 0 1 0 15 0 a7.5 7.5 0 1 0 -15 0zM316.01 551.53 a7.5 7.5 0 1 0 15 0 a7.5 7.5 0 1 0 -15 0zM640.78 289.03 a7.5 7.5 0 1 0 15 0 a7.5 7.5 0 1 0 -15 0zM705.74 326.53 a7.5 7.5 0 1 0 15 0 a7.5 7.5 0 1 0 -15 0zM705.74 401.53 a7.5 7.5 0 1 0 15 0 a7.5 7.5 0 1 0 -15 0zM640.78 439.03 a7.5 7.5 0 1 0 15 0 a7.5 7.5 0 1 0 -15 0zM575.83 401.53 a7.5 7.5 0 1 0 15 0 a7.5 7.5 0 1 0 -15 0zM575.83 326.53 a7.5 7.5 0 1 0 15 0 a7.5 7.5 0 1 0 -15 0zM640.78 514.03 a7.5 7.5 0 1 0 15 0 a7.5 7.5 0 1 0 -15 0zM575.83 551.53 a7.5 7.5 0 1 0 15 0 a7.5 7.5 0 1 0 -15 0zM510.88 514.03 a7.5 7.5 0 1 0 15 0 a7.5 7.5 0 1 0 -15 0zM510.88 439.03 a7.5 7.5 0 1 0 15 0 a7.5 7.5 0 1 0 -15 0zM835.64 -48.47 a7.5 7.5 0 1 0 15 0 a7.5 7.5 0 1 0 -15 0zM900.6 -10.97 a7.5 7.5 0 1 0 15 0 a7.5 7.5 0 1 0 -15 0zM900.6 64.03 a7.5 7.5 0 1 0 15 0 a7.5 7.5 0 1 0 -15 0zM835.64 101.53 a7.5 7.5 0 1 0 15 0 a7.5 7.5 0 1 0 -15 0zM770.69 64.03 a7.5 7.5 0 1 0 15 0 a7.5 7.5 0 1 0 -15 0zM770.69 -10.97 a7.5 7.5 0 1 0 15 0 a7.5 7.5 0 1 0 -15 0zM835.64 176.53 a7.5 7.5 0 1 0 15 0 a7.5 7.5 0 1 0 -15 0zM900.6 214.03 a7.5 7.5 0 1 0 15 0 a7.5 7.5 0 1 0 -15 0zM900.6 289.03 a7.5 7.5 0 1 0 15 0 a7.5 7.5 0 1 0 -15 0zM835.64 326.53 a7.5 7.5 0 1 0 15 0 a7.5 7.5 0 1 0 -15 0zM770.69 289.03 a7.5 7.5 0 1 0 15 0 a7.5 7.5 0 1 0 -15 0zM770.69 214.03 a7.5 7.5 0 1 0 15 0 a7.5 7.5 0 1 0 -15 0zM1030.51 289.03 a7.5 7.5 0 1 0 15 0 a7.5 7.5 0 1 0 -15 0zM1095.46 326.53 a7.5 7.5 0 1 0 15 0 a7.5 7.5 0 1 0 -15 0zM1095.46 401.53 a7.5 7.5 0 1 0 15 0 a7.5 7.5 0 1 0 -15 0zM1030.51 439.03 a7.5 7.5 0 1 0 15 0 a7.5 7.5 0 1 0 -15 0zM965.55 401.53 a7.5 7.5 0 1 0 15 0 a7.5 7.5 0 1 0 -15 0zM965.55 326.53 a7.5 7.5 0 1 0 15 0 a7.5 7.5 0 1 0 -15 0zM1030.51 514.03 a7.5 7.5 0 1 0 15 0 a7.5 7.5 0 1 0 -15 0zM1095.46 551.53 a7.5 7.5 0 1 0 15 0 a7.5 7.5 0 1 0 -15 0zM1095.46 626.53 a7.5 7.5 0 1 0 15 0 a7.5 7.5 0 1 0 -15 0zM1030.51 664.03 a7.5 7.5 0 1 0 15 0 a7.5 7.5 0 1 0 -15 0zM965.55 626.53 a7.5 7.5 0 1 0 15 0 a7.5 7.5 0 1 0 -15 0zM965.55 551.53 a7.5 7.5 0 1 0 15 0 a7.5 7.5 0 1 0 -15 0zM1160.41 514.03 a7.5 7.5 0 1 0 15 0 a7.5 7.5 0 1 0 -15 0zM1225.37 551.53 a7.5 7.5 0 1 0 15 0 a7.5 7.5 0 1 0 -15 0zM1225.37 626.53 a7.5 7.5 0 1 0 15 0 a7.5 7.5 0 1 0 -15 0zM1160.41 664.03 a7.5 7.5 0 1 0 15 0 a7.5 7.5 0 1 0 -15 0zM1290.32 64.03 a7.5 7.5 0 1 0 15 0 a7.5 7.5 0 1 0 -15 0zM1355.27 101.53 a7.5 7.5 0 1 0 15 0 a7.5 7.5 0 1 0 -15 0zM1355.27 176.53 a7.5 7.5 0 1 0 15 0 a7.5 7.5 0 1 0 -15 0zM1290.32 214.03 a7.5 7.5 0 1 0 15 0 a7.5 7.5 0 1 0 -15 0zM1225.37 176.53 a7.5 7.5 0 1 0 15 0 a7.5 7.5 0 1 0 -15 0zM1225.37 101.53 a7.5 7.5 0 1 0 15 0 a7.5 7.5 0 1 0 -15 0zM1355.28 176.53 a7.5 7.5 0 1 0 15 0 a7.5 7.5 0 1 0 -15 0zM1420.23 214.03 a7.5 7.5 0 1 0 15 0 a7.5 7.5 0 1 0 -15 0zM1420.23 289.03 a7.5 7.5 0 1 0 15 0 a7.5 7.5 0 1 0 -15 0zM1355.28 326.53 a7.5 7.5 0 1 0 15 0 a7.5 7.5 0 1 0 -15 0zM1290.32 289.03 a7.5 7.5 0 1 0 15 0 a7.5 7.5 0 1 0 -15 0zM1420.23 514.03 a7.5 7.5 0 1 0 15 0 a7.5 7.5 0 1 0 -15 0zM1485.18 551.53 a7.5 7.5 0 1 0 15 0 a7.5 7.5 0 1 0 -15 0zM1485.18 626.53 a7.5 7.5 0 1 0 15 0 a7.5 7.5 0 1 0 -15 0zM1420.23 664.03 a7.5 7.5 0 1 0 15 0 a7.5 7.5 0 1 0 -15 0zM1355.28 626.53 a7.5 7.5 0 1 0 15 0 a7.5 7.5 0 1 0 -15 0zM1355.28 551.53 a7.5 7.5 0 1 0 15 0 a7.5 7.5 0 1 0 -15 0z" fill="rgba(0, 1, 2, 1)"></path><path d="M20.89 -24.91L64.19 0.09L64.19 50.09L20.89 75.09L-22.41 50.09L-22.41 0.09zM64.19 200.09L107.5 225.09L107.5 275.09L64.19 300.09L20.89 275.09L20.89 225.09zM150.8 50.09L194.1 75.09L194.1 125.09L150.8 150.09L107.5 125.09L107.5 75.09zM107.5 125.09L150.8 150.09L150.8 200.09L107.5 225.09L64.19 200.09L64.19 150.09zM150.8 200.09L194.1 225.09L194.1 275.09L150.8 300.09L107.5 275.09L107.5 225.09zM107.5 275.09L150.8 300.09L150.8 350.09L107.5 375.09L64.19 350.09L64.19 300.09zM150.8 350.09L194.1 375.09L194.1 425.09L150.8 450.09L107.5 425.09L107.5 375.09zM107.5 425.09L150.8 450.09L150.8 500.09L107.5 525.09L64.19 500.09L64.19 450.09zM150.8 500.09L194.1 525.09L194.1 575.09L150.8 600.09L107.5 575.09L107.5 525.09zM194.1 -24.91L237.4 0.09L237.4 50.09L194.1 75.09L150.8 50.09L150.8 0.09zM194.1 125.09L237.4 150.09L237.4 200.09L194.1 225.09L150.8 200.09L150.8 150.09zM237.4 200.09L280.7 225.09L280.7 275.09L237.4 300.09L194.1 275.09L194.1 225.09zM237.4 500.09L280.7 525.09L280.7 575.09L237.4 600.09L194.1 575.09L194.1 525.09zM280.7 -24.91L324.01 0.09L324.01 50.09L280.7 75.09L237.4 50.09L237.4 0.09zM324.01 50.09L367.31 75.09L367.31 125.09L324.01 150.09L280.7 125.09L280.7 75.09zM280.7 125.09L324.01 150.09L324.01 200.09L280.7 225.09L237.4 200.09L237.4 150.09zM280.7 275.09L324.01 300.09L324.01 350.09L280.7 375.09L237.4 350.09L237.4 300.09zM324.01 350.09L367.31 375.09L367.31 425.09L324.01 450.09L280.7 425.09L280.7 375.09zM410.61 50.09L453.92 75.09L453.92 125.09L410.61 150.09L367.31 125.09L367.31 75.09zM367.31 125.09L410.61 150.09L410.61 200.09L367.31 225.09L324.01 200.09L324.01 150.09zM410.61 200.09L453.92 225.09L453.92 275.09L410.61 300.09L367.31 275.09L367.31 225.09zM367.31 425.09L410.61 450.09L410.61 500.09L367.31 525.09L324.01 500.09L324.01 450.09zM497.22 50.09L540.52 75.09L540.52 125.09L497.22 150.09L453.92 125.09L453.92 75.09zM453.92 125.09L497.22 150.09L497.22 200.09L453.92 225.09L410.61 200.09L410.61 150.09zM497.22 200.09L540.52 225.09L540.52 275.09L497.22 300.09L453.92 275.09L453.92 225.09zM453.92 275.09L497.22 300.09L497.22 350.09L453.92 375.09L410.61 350.09L410.61 300.09zM497.22 350.09L540.52 375.09L540.52 425.09L497.22 450.09L453.92 425.09L453.92 375.09zM497.22 500.09L540.52 525.09L540.52 575.09L497.22 600.09L453.92 575.09L453.92 525.09zM583.82 50.09L627.13 75.09L627.13 125.09L583.82 150.09L540.52 125.09L540.52 75.09zM540.52 125.09L583.82 150.09L583.82 200.09L540.52 225.09L497.22 200.09L497.22 150.09zM583.82 200.09L627.13 225.09L627.13 275.09L583.82 300.09L540.52 275.09L540.52 225.09zM540.52 275.09L583.82 300.09L583.82 350.09L540.52 375.09L497.22 350.09L497.22 300.09zM540.52 425.09L583.82 450.09L583.82 500.09L540.52 525.09L497.22 500.09L497.22 450.09zM670.43 50.09L713.73 75.09L713.73 125.09L670.43 150.09L627.13 125.09L627.13 75.09zM627.13 125.09L670.43 150.09L670.43 200.09L627.13 225.09L583.82 200.09L583.82 150.09zM670.43 500.09L713.73 525.09L713.73 575.09L670.43 600.09L627.13 575.09L627.13 525.09zM713.73 -24.91L757.03 0.09L757.03 50.09L713.73 75.09L670.43 50.09L670.43 0.09zM713.73 275.09L757.03 300.09L757.03 350.09L713.73 375.09L670.43 350.09L670.43 300.09zM713.73 425.09L757.03 450.09L757.03 500.09L713.73 525.09L670.43 500.09L670.43 450.09zM800.34 275.09L843.64 300.09L843.64 350.09L800.34 375.09L757.03 350.09L757.03 300.09zM886.94 -24.91L930.24 0.09L930.24 50.09L886.94 75.09L843.64 50.09L843.64 0.09zM886.94 425.09L930.24 450.09L930.24 500.09L886.94 525.09L843.64 500.09L843.64 450.09zM930.24 500.09L973.55 525.09L973.55 575.09L930.24 600.09L886.94 575.09L886.94 525.09zM973.55 -24.91L1016.85 0.09L1016.85 50.09L973.55 75.09L930.24 50.09L930.24 0.09zM973.55 275.09L1016.85 300.09L1016.85 350.09L973.55 375.09L930.24 350.09L930.24 300.09zM1016.85 350.09L1060.15 375.09L1060.15 425.09L1016.85 450.09L973.55 425.09L973.55 375.09zM1016.85 500.09L1060.15 525.09L1060.15 575.09L1016.85 600.09L973.55 575.09L973.55 525.09zM1060.15 -24.91L1103.45 0.09L1103.45 50.09L1060.15 75.09L1016.85 50.09L1016.85 0.09zM1060.15 125.09L1103.45 150.09L1103.45 200.09L1060.15 225.09L1016.85 200.09L1016.85 150.09zM1103.45 350.09L1146.76 375.09L1146.76 425.09L1103.45 450.09L1060.15 425.09L1060.15 375.09zM1060.15 425.09L1103.45 450.09L1103.45 500.09L1060.15 525.09L1016.85 500.09L1016.85 450.09zM1146.76 125.09L1190.06 150.09L1190.06 200.09L1146.76 225.09L1103.45 200.09L1103.45 150.09zM1190.06 200.09L1233.36 225.09L1233.36 275.09L1190.06 300.09L1146.76 275.09L1146.76 225.09zM1146.76 275.09L1190.06 300.09L1190.06 350.09L1146.76 375.09L1103.45 350.09L1103.45 300.09zM1190.06 350.09L1233.36 375.09L1233.36 425.09L1190.06 450.09L1146.76 425.09L1146.76 375.09zM1190.06 500.09L1233.36 525.09L1233.36 575.09L1190.06 600.09L1146.76 575.09L1146.76 525.09zM1233.36 -24.91L1276.66 0.09L1276.66 50.09L1233.36 75.09L1190.06 50.09L1190.06 0.09zM1276.66 50.09L1319.97 75.09L1319.97 125.09L1276.66 150.09L1233.36 125.09L1233.36 75.09zM1233.36 125.09L1276.66 150.09L1276.66 200.09L1233.36 225.09L1190.06 200.09L1190.06 150.09zM1276.66 200.09L1319.97 225.09L1319.97 275.09L1276.66 300.09L1233.36 275.09L1233.36 225.09zM1233.36 275.09L1276.66 300.09L1276.66 350.09L1233.36 375.09L1190.06 350.09L1190.06 300.09zM1276.66 500.09L1319.97 525.09L1319.97 575.09L1276.66 600.09L1233.36 575.09L1233.36 525.09zM1319.97 125.09L1363.27 150.09L1363.27 200.09L1319.97 225.09L1276.66 200.09L1276.66 150.09zM1319.97 275.09L1363.27 300.09L1363.27 350.09L1319.97 375.09L1276.66 350.09L1276.66 300.09zM1363.27 350.09L1406.57 375.09L1406.57 425.09L1363.27 450.09L1319.97 425.09L1319.97 375.09zM1449.87 50.09L1493.18 75.09L1493.18 125.09L1449.87 150.09L1406.57 125.09L1406.57 75.09zM1406.57 125.09L1449.87 150.09L1449.87 200.09L1406.57 225.09L1363.27 200.09L1363.27 150.09zM1449.87 200.09L1493.18 225.09L1493.18 275.09L1449.87 300.09L1406.57 275.09L1406.57 225.09zM1449.87 500.09L1493.18 525.09L1493.18 575.09L1449.87 600.09L1406.57 575.09L1406.57 525.09z" stroke="url(&quot;#SvgjsLinearGradient1326&quot;)" stroke-width="2"></path></g><defs><mask id="SvgjsMask1325"><rect width="1440" height="560" fill="#ffffff"></rect></mask><linearGradient x1="220.03199999999998" y1="-220.02399999999997" x2="1219.9679999999998" y2="780.024" gradientUnits="userSpaceOnUse" id="SvgjsLinearGradient1326"><stop stop-color="#0e2a47" offset="0"></stop><stop stop-color="rgba(107, 107, 107, 1)" offset="1"></stop></linearGradient></defs></svg>